<svg width="200" height="24" viewBox="0 0 200 24" fill="none" xmlns="http://www.w3.org/2000/svg">
<mask id="mask0_11_1699" style="mask-type:alpha" maskUnits="userSpaceOnUse" x="0" y="0" width="24" height="24">
<rect width="24" height="24" fill="#C4C4C4"/>
</mask>
<g mask="url(#mask0_11_1699)">
<path d="M19.75 2H4.25C3.01 2 2 3.01 2 4.25V19.75C2 20.99 3.01 22 4.25 22H19.75C20.99 22 22 20.99 22 19.75V4.25C22 3.01 20.99 2 19.75 2ZM4.25 3.5H19.75C20.163 3.5 20.5 3.837 20.5 4.25V13.926L16.642 10.068C16.502 9.928 16.312 9.848 16.112 9.848H16.109C15.909 9.848 15.716 9.928 15.577 10.072L11.26 14.456L9.44701 12.65C9.30701 12.51 9.11701 12.43 8.91701 12.43C8.72401 12.4 8.522 12.51 8.382 12.657L3.5 17.642V4.25C3.5 3.837 3.837 3.5 4.25 3.5ZM3.506 19.78L8.924 14.246L15.206 20.5H4.25C3.848 20.5 3.523 20.178 3.506 19.78ZM19.75 20.5H17.33L12.323 15.513L16.115 11.663L20.5 16.047V19.75C20.5 20.163 20.163 20.5 19.75 20.5Z" fill="#1D9BF0"/>
<path d="M8.86816 9.85097C9.72016 9.85097 10.4102 9.16067 10.4102 8.30897C10.4102 7.45737 9.72016 6.76697 8.86816 6.76697C8.01616 6.76697 7.32617 7.45737 7.32617 8.30897C7.32617 9.16067 8.01616 9.85097 8.86816 9.85097Z" fill="#1D9BF0"/>
</g>
<mask id="mask1_11_1699" style="mask-type:alpha" maskUnits="userSpaceOnUse" x="44" y="0" width="24" height="24">
<rect x="44" width="24" height="24" fill="#C4C4C4"/>
</mask>
<g mask="url(#mask1_11_1699)">
<path d="M62.7499 10.48V8.78003H58.3499V15.18H60.0499V13.18H62.0499V11.48H60.0499V10.48H62.7499ZM55.4499 8.78003H57.1499V15.18H55.4499V8.78003ZM51.8499 10.38C52.2499 10.38 52.7499 10.58 53.0499 10.88L54.2499 9.88003C53.6499 9.18003 52.7499 8.78003 51.8499 8.78003C50.0499 8.78003 48.6499 10.18 48.6499 11.98C48.6499 13.78 50.0499 15.18 51.8499 15.18C52.8499 15.18 53.6499 14.78 54.2499 14.08V11.58H51.4499V12.78H52.6499V13.38C52.4499 13.48 52.1499 13.58 51.8499 13.58C50.9499 13.58 50.2499 12.88 50.2499 11.98C50.2499 11.18 50.9499 10.38 51.8499 10.38Z" fill="#1D9BF0"/>
<path d="M64.25 2H47.25C46.01 2 45 3.007 45 4.247V19.754C45 20.992 46.01 22 47.25 22H64.25C65.49 22 66.5 20.992 66.5 19.754V4.247C66.5 3.007 65.49 2 64.25 2ZM65 19.754C65 20.164 64.664 20.5 64.25 20.5H47.25C46.836 20.5 46.5 20.164 46.5 19.754V4.247C46.5 3.835 46.836 3.5 47.25 3.5H64.25C64.664 3.5 65 3.835 65 4.247V19.754Z" fill="#1D9BF0"/>
</g>
<mask id="mask2_11_1699" style="mask-type:alpha" maskUnits="userSpaceOnUse" x="88" y="0" width="24" height="24">
<rect x="88" width="24" height="24" fill="#C4C4C4"/>
</mask>
<g mask="url(#mask2_11_1699)">
<path d="M108.222 9.552H106.888C106.903 9.462 106.916 9.37 106.916 9.275V6.962C106.916 5.982 106.119 5.185 105.138 5.185H91.5V3.75C91.5 3.336 91.164 3 90.75 3C90.336 3 90 3.336 90 3.75V21.222C90 21.637 90.336 21.972 90.75 21.972C91.164 21.972 91.5 21.637 91.5 21.222V19.788H102.056C103.036 19.788 103.834 18.991 103.834 18.011V15.698C103.834 15.603 103.82 15.511 103.806 15.42H108.223C109.203 15.42 110.001 14.622 110.001 13.642V11.332C110.001 10.349 109.204 9.552 108.223 9.552H108.222ZM105.14 6.685C105.292 6.685 105.417 6.809 105.417 6.962V9.272C105.417 9.426 105.292 9.552 105.139 9.552H91.5V6.682H105.14V6.685ZM102.333 15.699V18.011C102.333 18.164 102.208 18.288 102.055 18.288H91.5V15.42H102.056C102.209 15.42 102.333 15.546 102.333 15.7V15.699ZM108.5 13.642C108.5 13.795 108.375 13.919 108.222 13.919H91.5V11.052H108.222C108.375 11.052 108.5 11.176 108.5 11.329V13.642Z" fill="#1D9BF0"/>
</g>
<mask id="mask3_11_1699" style="mask-type:alpha" maskUnits="userSpaceOnUse" x="132" y="0" width="24" height="24">
<rect x="132" width="24" height="24" fill="#C4C4C4"/>
</mask>
<g mask="url(#mask3_11_1699)">
<path d="M143.75 22.5C137.822 22.5 133 17.678 133 11.75C133 5.822 137.822 1 143.75 1C149.678 1 154.5 5.822 154.5 11.75C154.5 17.678 149.678 22.5 143.75 22.5ZM143.75 2.5C138.65 2.5 134.5 6.65 134.5 11.75C134.5 16.85 138.65 21 143.75 21C148.85 21 153 16.85 153 11.75C153 6.65 148.85 2.5 143.75 2.5Z" fill="#1D9BF0"/>
<path d="M143.75 16.8651C141.858 16.8651 140.117 15.9151 139.094 14.3211C138.87 13.9731 138.971 13.5111 139.32 13.2861C139.668 13.0601 140.132 13.1621 140.356 13.5121C141.103 14.6741 142.372 15.3671 143.751 15.3671C145.13 15.3671 146.399 14.6741 147.147 13.5131C147.371 13.1631 147.835 13.0631 148.183 13.2881C148.533 13.5121 148.633 13.9761 148.409 14.3241C147.384 15.9181 145.643 16.8691 143.751 16.8691L143.75 16.8651Z" fill="#1D9BF0"/>
<path d="M146.488 10.686C147.304 10.686 147.966 10.0243 147.966 9.20798C147.966 8.39168 147.304 7.72998 146.488 7.72998C145.671 7.72998 145.01 8.39168 145.01 9.20798C145.01 10.0243 145.671 10.686 146.488 10.686Z" fill="#1D9BF0"/>
<path d="M141.012 10.686C141.828 10.686 142.49 10.0243 142.49 9.20798C142.49 8.39168 141.828 7.72998 141.012 7.72998C140.196 7.72998 139.534 8.39168 139.534 9.20798C139.534 10.0243 140.196 10.686 141.012 10.686Z" fill="#1D9BF0"/>
</g>
<mask id="mask4_11_1699" style="mask-type:alpha" maskUnits="userSpaceOnUse" x="176" y="0" width="24" height="24">
<rect x="176" width="24" height="24" fill="#C4C4C4"/>
</mask>
<g mask="url(#mask4_11_1699)">
</g>
<g clip-path="url(#clip0_11_1699)">
<path d="M138.1 18C138 17.9 138 17.9 138 17.8C138.1 17.8 138.1 17.9 138.1 18ZM194 2.19998H192.7V1.89998C192.7 1.49998 192.4 1.09998 191.9 1.09998C191.5 1.09998 191.1 1.39998 191.1 1.89998V2.19998H183.7V1.89998C183.7 1.49998 183.4 1.09998 182.9 1.09998C182.5 1.09998 182.1 1.39998 182.1 1.89998V2.19998H180.8C179.4 2.19998 178.3 3.29998 178.3 4.69998V17.8C178.3 19.2 179.4 20.3 180.8 20.3H183.7C184.1 20.3 184.5 20 184.5 19.5C184.5 19.1 184.2 18.7 183.7 18.7H180.8C180.2 18.7 179.8 18.2 179.8 17.7V7.89998C179.8 7.59998 180.2 7.19998 180.8 7.19998H194C194.6 7.19998 195 7.59998 195 7.89998V9.69998C195 10.1 195.3 10.5 195.8 10.5C196.2 10.5 196.6 10.2 196.6 9.69998V4.69998C196.5 3.29998 195.4 2.19998 194 2.19998ZM195 5.89998C194.7 5.79998 194.3 5.69998 194 5.69998H180.8C180.4 5.69998 180.1 5.79998 179.8 5.89998V4.69998C179.8 4.09998 180.3 3.69998 180.8 3.69998H182.1V4.19998C182.1 4.59998 182.4 4.99998 182.9 4.99998C183.3 4.99998 183.7 4.69998 183.7 4.19998V3.69998H191.2V4.19998C191.2 4.59998 191.5 4.99998 192 4.99998C192.4 4.99998 192.8 4.69998 192.8 4.19998V3.69998H194C194.6 3.69998 195 4.19998 195 4.69998V5.89998Z" fill="#1D9BF0"/>
<path d="M191.5 10.4C188.1 10.4 185.3 13.2 185.3 16.6C185.3 20 188.1 22.8 191.5 22.8C194.9 22.8 197.7 20 197.7 16.6C197.7 13.2 194.9 10.4 191.5 10.4ZM191.5 21.4C188.9 21.4 186.8 19.3 186.8 16.7C186.8 14.1 188.9 12 191.5 12C194.1 12 196.2 14.1 196.2 16.7C196.2 19.2 194.1 21.4 191.5 21.4Z" fill="#1D9BF0"/>
<path d="M194.9 18.7C194.8 18.9 194.5 19.1 194.3 19.1C194.2 19.1 194 19.1 193.9 19L190.8 17V14C190.8 13.6 191.1 13.2 191.6 13.2C192 13.2 192.4 13.5 192.4 14V16.2L194.8 17.7C195 17.9 195.1 18.3 194.9 18.7Z" fill="#1D9BF0"/>
</g>
<defs>
<clipPath id="clip0_11_1699">
<rect width="24" height="24" fill="white" transform="translate(176)"/>
</clipPath>
</defs>
</svg>
